<svg width="12" height="12" viewBox="0 0 12 12" fill="none" xmlns="http://www.w3.org/2000/svg">
<path d="M6 9V7.5" stroke="white" stroke-width="1.25" stroke-linecap="round"/>
<path d="M1.17569 6.60675C0.999185 5.4581 0.91093 4.88382 1.12809 4.37469C1.34524 3.86556 1.82702 3.51721 2.79057 2.82053L3.5105 2.3C4.70915 1.43333 5.30846 1 6.00001 1C6.69151 1 7.29086 1.43333 8.48951 2.3L9.20941 2.82053C10.173 3.51721 10.6548 3.86556 10.8719 4.37469C11.0891 4.88382 11.0008 5.4581 10.8243 6.60675L10.6738 7.5862C10.4236 9.21445 10.2985 10.0286 9.71451 10.5143C9.13056 11 8.27681 11 6.56941 11H5.43061C3.72317 11 2.86946 11 2.2855 10.5143C1.70155 10.0286 1.57644 9.21445 1.32622 7.5862L1.17569 6.60675Z" stroke="white" stroke-width="1.25" stroke-linejoin="round"/>
</svg>
