<svg width="20" height="21" viewBox="0 0 20 21" fill="none" xmlns="http://www.w3.org/2000/svg">
<path d="M10.0002 12.1666C10.9206 12.1666 11.6668 11.4204 11.6668 10.4999C11.6668 9.57944 10.9206 8.83325 10.0002 8.83325C9.07969 8.83325 8.3335 9.57944 8.3335 10.4999C8.3335 11.4204 9.07969 12.1666 10.0002 12.1666Z" stroke="white" stroke-width="1.25" stroke-linecap="round" stroke-linejoin="round"/>
<path d="M6.25 7.16675C5.41667 8.00008 5 9.25008 5 10.5001C5 11.7501 5.41667 13.0001 6.25 13.8334" stroke="white" stroke-width="1.25" stroke-linecap="round" stroke-linejoin="round"/>
<path d="M3.74984 5.5C2.49984 6.75 1.6665 8.41667 1.6665 10.5C1.6665 12.5833 2.49984 14.25 3.74984 15.5" stroke="white" stroke-width="1.25" stroke-linecap="round" stroke-linejoin="round"/>
<path d="M13.75 13.8334C14.5833 13.0001 15 11.7501 15 10.5001C15 9.25008 14.5833 8.00008 13.75 7.16675" stroke="white" stroke-width="1.25" stroke-linecap="round" stroke-linejoin="round"/>
<path d="M16.25 15.5C17.5 14.25 18.3333 12.5833 18.3333 10.5C18.3333 8.41667 17.5 6.75 16.25 5.5" stroke="white" stroke-width="1.25" stroke-linecap="round" stroke-linejoin="round"/>
</svg>
