<svg width="197" height="118" viewBox="0 0 197 118" fill="none" xmlns="http://www.w3.org/2000/svg">
<path d="M135.749 6.31C136.276 4.86938 137.228 3.62233 138.478 2.73301C139.728 1.84369 141.218 1.35378 142.752 1.32779H190.631C191.458 1.29685 192.282 1.44785 193.045 1.77013C193.807 2.09241 194.49 2.57812 195.044 3.19299C195.599 3.80785 196.011 4.53688 196.253 5.32865C196.495 6.12042 196.56 6.95563 196.444 7.77535L184.075 111.552C183.813 113.319 182.931 114.935 181.586 116.111C180.242 117.286 178.523 117.945 176.737 117.97H24.8182C23.9936 118.002 23.1722 117.852 22.4118 117.532C21.6514 117.211 20.9704 116.728 20.4167 116.117C19.8631 115.505 19.4503 114.779 19.2073 113.991C18.9644 113.202 18.8972 112.37 19.0106 111.552L29.3817 24.3608C29.6442 22.5941 30.5266 20.9784 31.8711 19.8026C33.2156 18.6269 34.9345 17.9678 36.7204 17.9431H119.39C122.973 17.882 126.453 16.7381 129.372 14.6617C132.292 12.5853 134.515 9.67373 135.749 6.31Z" fill="#121212"/>
<path d="M21.7441 113.191H180.487L189.53 6.38181H30.7935L21.7441 113.191Z" fill="#F0F0F0" fill-opacity="0.5"/>
<path d="M21.7441 113.191H180.487L187.03 6.38181H30.7935L21.7441 113.191Z" fill="#E0E0E0" fill-opacity="0.5"/>
<path d="M21.7441 113.191H180.487L185.942 2.99049H27.2048L21.7441 113.191Z" fill="#F0F0F0" fill-opacity="0.5"/>
<path d="M21.7441 113.191H180.487L182.646 2.99049H27.2048L21.7441 113.191Z" fill="#E0E0E0" fill-opacity="0.5"/>
<path d="M21.7441 113.191H180.487L181.432 -3.05176e-05H22.6951L21.7441 113.191Z" fill="#F0F0F0" fill-opacity="0.5"/>
<path d="M21.7426 113.191H180.486L177.226 2.14122H19.5117L21.7426 113.191Z" fill="#E0E0E0" fill-opacity="0.5"/>
<path d="M21.7432 113.191H180.486L175.773 2.99049H17.0361L21.7432 113.191Z" fill="#F0F0F0" fill-opacity="0.5"/>
<path d="M21.7434 113.191H180.486L172.98 4.65327H14.2432L21.7434 113.191Z" fill="#E0E0E0" fill-opacity="0.5"/>
<path d="M21.7443 113.191H180.487L171.785 5.58029H13.0479L21.7443 113.191Z" fill="#F0F0F0" fill-opacity="0.5"/>
<path d="M101.238 13.0506C101.246 12.3566 101.395 11.6716 101.674 11.0361C101.953 10.4007 102.357 9.82798 102.862 9.35196C103.367 8.87595 103.963 8.50641 104.614 8.26534C105.264 8.02428 105.957 7.91661 106.65 7.94876H154.529C156.382 8.01992 158.16 8.70464 159.582 9.89542C161.005 11.0862 161.992 12.7156 162.388 14.5279L181.306 111.421C182.012 115.051 179.643 118 176.013 118H24.094C20.4576 118 16.9168 115.051 16.229 111.421L0.624408 31.544C-0.0813553 27.9135 2.28714 24.9648 5.91763 24.9648H88.5936C95.7709 24.9648 100.992 20.0245 101.238 13.0506Z" fill="#121212"/>
<path opacity="0.2" d="M101.238 13.0506C101.246 12.3566 101.395 11.6716 101.674 11.0361C101.953 10.4007 102.357 9.82798 102.862 9.35196C103.367 8.87595 103.963 8.50641 104.614 8.26534C105.264 8.02428 105.957 7.91661 106.65 7.94876H154.529C156.382 8.01992 158.16 8.70464 159.582 9.89542C161.005 11.0862 161.992 12.7156 162.388 14.5279L181.306 111.421C182.012 115.051 179.643 118 176.013 118H24.094C20.4576 118 16.9168 115.051 16.229 111.421L0.624408 31.544C-0.0813553 27.9135 2.28714 24.9648 5.91763 24.9648H88.5936C95.7709 24.9648 100.992 20.0245 101.238 13.0506Z" fill="black"/>
</svg>
