<svg width="16" height="16" viewBox="0 0 16 16" fill="none" xmlns="http://www.w3.org/2000/svg">
<path d="M4.96035 0.5H11.2604C13.6604 0.5 15.6104 2.45 15.6104 4.85V11.15C15.6104 12.3037 15.1521 13.4101 14.3363 14.2259C13.5205 15.0417 12.414 15.5 11.2604 15.5H4.96035C2.56035 15.5 0.610352 13.55 0.610352 11.15V4.85C0.610352 3.69631 1.06865 2.58987 1.88444 1.77409C2.70022 0.958302 3.80666 0.5 4.96035 0.5ZM4.81035 2C4.09427 2 3.40751 2.28446 2.90116 2.79081C2.39482 3.29716 2.11035 3.98392 2.11035 4.7V11.3C2.11035 12.7925 3.31785 14 4.81035 14H11.4104C12.1264 14 12.8132 13.7155 13.3195 13.2092C13.8259 12.7028 14.1104 12.0161 14.1104 11.3V4.7C14.1104 3.2075 12.9029 2 11.4104 2H4.81035ZM12.0479 3.125C12.2965 3.125 12.5349 3.22377 12.7108 3.39959C12.8866 3.5754 12.9854 3.81386 12.9854 4.0625C12.9854 4.31114 12.8866 4.5496 12.7108 4.72541C12.5349 4.90123 12.2965 5 12.0479 5C11.7992 5 11.5608 4.90123 11.3849 4.72541C11.2091 4.5496 11.1104 4.31114 11.1104 4.0625C11.1104 3.81386 11.2091 3.5754 11.3849 3.39959C11.5608 3.22377 11.7992 3.125 12.0479 3.125ZM8.11035 4.25C9.10491 4.25 10.0587 4.64509 10.762 5.34835C11.4653 6.05161 11.8604 7.00544 11.8604 8C11.8604 8.99456 11.4653 9.94839 10.762 10.6517C10.0587 11.3549 9.10491 11.75 8.11035 11.75C7.11579 11.75 6.16196 11.3549 5.4587 10.6517C4.75544 9.94839 4.36035 8.99456 4.36035 8C4.36035 7.00544 4.75544 6.05161 5.4587 5.34835C6.16196 4.64509 7.11579 4.25 8.11035 4.25ZM8.11035 5.75C7.51361 5.75 6.94132 5.98705 6.51936 6.40901C6.0974 6.83097 5.86035 7.40326 5.86035 8C5.86035 8.59674 6.0974 9.16903 6.51936 9.59099C6.94132 10.0129 7.51361 10.25 8.11035 10.25C8.70709 10.25 9.27939 10.0129 9.70134 9.59099C10.1233 9.16903 10.3604 8.59674 10.3604 8C10.3604 7.40326 10.1233 6.83097 9.70134 6.40901C9.27939 5.98705 8.70709 5.75 8.11035 5.75Z" fill="white"/>
</svg>
