<svg width="16" height="16" viewBox="0 0 16 16" fill="none" xmlns="http://www.w3.org/2000/svg">
<path d="M5.86869 3.28417L5.5667 2.60469C5.36924 2.16041 5.27051 1.93826 5.12286 1.76826C4.93781 1.55521 4.6966 1.39846 4.42676 1.31589C4.21144 1.25 3.96834 1.25 3.48216 1.25C2.77093 1.25 2.41532 1.25 2.1168 1.38672C1.76515 1.54777 1.44758 1.89746 1.32105 2.26295C1.21363 2.57322 1.2444 2.89207 1.30593 3.52978C1.96093 10.3176 5.68236 14.0391 12.4702 14.694C13.1079 14.7556 13.4268 14.7864 13.737 14.679C14.1026 14.5525 14.4522 14.2348 14.6133 13.8832C14.75 13.5846 14.75 13.2291 14.75 12.5178C14.75 12.0316 14.75 11.7885 14.6841 11.5732C14.6015 11.3034 14.4448 11.0622 14.2317 10.8771C14.0618 10.7295 13.8396 10.6308 13.3953 10.4333L12.7158 10.1313C12.2347 9.91745 11.9941 9.81057 11.7497 9.78732C11.5157 9.76505 11.2798 9.7979 11.0608 9.88317C10.832 9.97227 10.6298 10.1408 10.2252 10.4778C9.82262 10.8134 9.62132 10.9812 9.37532 11.071C9.15722 11.1507 8.86892 11.1802 8.63927 11.1463C8.38014 11.1082 8.18177 11.0022 7.78494 10.7901C6.55044 10.1304 5.86965 9.4496 5.2099 8.21503C4.99785 7.81828 4.89183 7.61983 4.85365 7.36078C4.8198 7.13105 4.84931 6.84275 4.92897 6.62472C5.01884 6.37871 5.18661 6.17739 5.52214 5.77475C5.85921 5.37026 6.02775 5.16802 6.11686 4.93918C6.20214 4.72021 6.23496 4.4843 6.21271 4.25036C6.18945 4.00589 6.08253 3.76532 5.86869 3.28417Z" stroke="white" stroke-width="1.25" stroke-linecap="round"/>
</svg>
