<svg width="44" height="39" viewBox="0 0 44 39" fill="none" xmlns="http://www.w3.org/2000/svg">
<path d="M19.7673 34.5743C20.2091 33.1946 19.1597 32.7285 12.9205 31.5885C6.19383 30.2456 4.20003 30.4291 4.80766 32.2748C5.05743 33.0572 7.08171 33.9288 10.6051 34.7947C16.2345 36.212 19.2216 36.1271 19.7673 34.5743Z" fill="white"/>
<path d="M27.5055 25.0199C27.9463 22.3516 22.6431 13.6654 19.2452 11.485C16.2084 9.53334 16.612 12.1792 20.3815 19.3621C23.6372 25.7413 26.9646 28.3152 27.5055 25.0199Z" fill="white"/>
<path d="M40.9277 19.3734C41.1277 18.1193 37.669 3.13999 36.7453 1.35938C36.4435 0.663506 35.8071 0.339799 35.4502 0.564975C34.5577 1.12791 37.1617 17.3446 38.4985 19.2675C39.6007 20.9356 40.6461 20.9476 40.9277 19.3734Z" fill="white"/>
</svg>
