<svg width="16" height="13" viewBox="0 0 16 13" fill="none" xmlns="http://www.w3.org/2000/svg">
<path d="M15.8448 1.5C15.2673 1.7625 14.6448 1.935 13.9998 2.0175C14.6598 1.62 15.1698 0.99 15.4098 0.2325C14.7873 0.6075 14.0973 0.87 13.3698 1.02C12.7773 0.375 11.9448 0 10.9998 0C9.23729 0 7.79729 1.44 7.79729 3.2175C7.79729 3.4725 7.82729 3.72 7.87979 3.9525C5.20979 3.8175 2.83229 2.535 1.24979 0.5925C0.972285 1.065 0.814785 1.62 0.814785 2.205C0.814785 3.3225 1.37729 4.3125 2.24729 4.875C1.71479 4.875 1.21979 4.725 0.784785 4.5V4.5225C0.784785 6.0825 1.89479 7.3875 3.36479 7.68C2.89283 7.80916 2.39736 7.82713 1.91729 7.7325C2.12099 8.37186 2.51994 8.93131 3.05805 9.3322C3.59616 9.73309 4.24637 9.95527 4.91728 9.9675C3.78001 10.8678 2.37028 11.3545 0.919785 11.3475C0.664785 11.3475 0.409785 11.3325 0.154785 11.3025C1.57979 12.2175 3.27479 12.75 5.08979 12.75C10.9998 12.75 14.2473 7.845 14.2473 3.5925C14.2473 3.45 14.2473 3.315 14.2398 3.1725C14.8698 2.7225 15.4098 2.1525 15.8448 1.5Z" fill="white"/>
</svg>
